<?xml version="1.0" standalone="no"?>
<!DOCTYPE svg PUBLIC "-//W3C//DTD SVG 20010904//EN"
 "http://www.w3.org/TR/2001/REC-SVG-20010904/DTD/svg10.dtd">
<svg version="1.0" xmlns="http://www.w3.org/2000/svg"
 width="260.000000pt" height="260.000000pt" viewBox="0 0 260.000000 260.000000"
 preserveAspectRatio="xMidYMid meet">
<metadata>
Created by potrace 1.11, written by Peter Selinger 2001-2013
</metadata>
<g transform="translate(0.000000,260.000000) scale(0.100000,-0.100000)"
fill="#000000" stroke="none">
<path d="M1199 2596 c-2 -2 -31 -6 -64 -9 -80 -8 -241 -51 -329 -87 -407 -169
-696 -528 -783 -968 -22 -116 -22 -345 1 -465 79 -411 332 -746 701 -927 200
-99 397 -142 620 -135 604 18 1111 453 1230 1056 16 81 28 320 18 370 l-4 24
-127 0 c-70 -1 -133 1 -139 3 -7 2 -13 14 -13 26 0 46 -43 176 -90 272 -30 59
-78 136 -120 187 l-71 87 91 91 c50 50 89 96 87 103 -15 38 -204 174 -327 236
-80 40 -227 94 -285 104 -16 3 -55 11 -85 17 -51 10 -303 22 -311 15z"/>
</g>
</svg>
